# xmcd
#
# Track frame offsets:
#	150
#	9470
#	20007
#	30132
#	43257
#	53460
#	72037
#	84722
#	99987
#	116197
#	127540
#	148115
#
# Disc length: 2221
#
# Revision: 3
# Processed by: cddbd v1.5.1PL0 Copyright (c) Steve Scherf et al.
# Submitted via: CDex 1.50
# Normalized: r2:TDELIM( - ),TSWAP
#
DISCID=9008ab0c
DTITLE=Various Artist - Hits Collection 2 - SEMANARIO Argentina
DYEAR=1900
DGENRE=Pop
TTITLE0=Ritchie Valens - La Bamba
TTITLE1=Jimi Hendrix and Little Richard - Hound dog
TTITLE2=Carl Perkins - Blue suede shoes
TTITLE3=Little Tony - Oh pretty woman
TTITLE4=Neil Sedaka - Oh Carol
TTITLE5=Carpenters - Only yesterday
TTITLE6=The Archies - Sugar, sugar
TTITLE7=Eddie Floyd - Knock on wood
TTITLE8=Mungo Jerry - In the summertime
TTITLE9=The Equals - Baby come back
TTITLE10=Gerry and The Pacemakers - A whiter shade of pale
TTITLE11=Shirley Bassey - That's what friends are for
EXTD=
EXTT0=
EXTT1=
EXTT2=
EXTT3=
EXTT4=
EXTT5=
EXTT6=
EXTT7=
EXTT8=
EXTT9=
EXTT10=
EXTT11=
PLAYORDER=
